<svg width="126" height="44" viewBox="0 0 126 44" fill="none" xmlns="http://www.w3.org/2000/svg">
<circle cx="22" cy="22" r="22" fill="#E3A061"/>
<path d="M28.08 25.24C28.08 24.3067 27.8667 23.6133 27.44 23.16C27.0267 22.6933 26.42 22.46 25.62 22.46C25.4333 22.46 25.2733 22.4667 25.14 22.48C25.0067 22.48 24.88 22.48 24.76 22.48C24.76 22.76 24.7533 23.0533 24.74 23.36C24.74 23.6533 24.74 24.0067 24.74 24.42C24.74 24.74 24.74 25.0667 24.74 25.4C24.7533 25.7333 24.76 26.06 24.76 26.38C24.76 26.7 24.76 26.9933 24.76 27.26C24.7733 27.5267 24.78 27.7467 24.78 27.92C24.9667 27.9333 25.14 27.9467 25.3 27.96C25.46 27.96 25.6533 27.96 25.88 27.96C26.1733 27.96 26.4533 27.9 26.72 27.78C26.9867 27.66 27.22 27.4867 27.42 27.26C27.62 27.02 27.78 26.7333 27.9 26.4C28.02 26.0667 28.08 25.68 28.08 25.24ZM27.94 18.78C27.94 18.46 27.9 18.16 27.82 17.88C27.7533 17.5867 27.6333 17.34 27.46 17.14C27.2867 16.9267 27.0667 16.76 26.8 16.64C26.5333 16.5067 26.2 16.44 25.8 16.44C25.5067 16.44 25.3 16.4467 25.18 16.46C25.0733 16.46 24.9533 16.4733 24.82 16.5C24.7933 16.9933 24.7733 17.4933 24.76 18C24.7467 18.5067 24.74 18.9333 24.74 19.28C24.74 19.64 24.74 19.9867 24.74 20.32C24.7533 20.64 24.76 20.9733 24.76 21.32H25.66C25.94 21.32 26.2133 21.2667 26.48 21.16C26.76 21.0533 27.0067 20.9 27.22 20.7C27.4333 20.4867 27.6067 20.22 27.74 19.9C27.8733 19.58 27.94 19.2067 27.94 18.78ZM21.78 20.84C21.78 19.7333 21.7667 18.7533 21.74 17.9C21.7133 17.0333 21.6733 16.1667 21.62 15.3C21.8467 15.3267 22.0933 15.3533 22.36 15.38C22.6267 15.3933 22.9267 15.4 23.26 15.4C23.8333 15.4 24.4333 15.3867 25.06 15.36C25.6867 15.32 26.2867 15.3 26.86 15.3C27.46 15.3 28.0067 15.36 28.5 15.48C28.9933 15.6 29.42 15.7867 29.78 16.04C30.14 16.28 30.4133 16.6 30.6 17C30.8 17.3867 30.9 17.8533 30.9 18.4C30.9 18.9467 30.7867 19.42 30.56 19.82C30.3333 20.2067 30.0533 20.5333 29.72 20.8C29.4 21.0533 29.0467 21.2533 28.66 21.4C28.2867 21.5467 27.9467 21.6467 27.64 21.7V21.74C27.9467 21.7533 28.3067 21.8267 28.72 21.96C29.1333 22.08 29.5267 22.2733 29.9 22.54C30.2733 22.8067 30.5867 23.1533 30.84 23.58C31.1067 23.9933 31.24 24.5 31.24 25.1C31.24 25.82 31.1067 26.4333 30.84 26.94C30.5867 27.4467 30.24 27.86 29.8 28.18C29.3733 28.5 28.88 28.7267 28.32 28.86C27.76 28.98 27.18 29.04 26.58 29.04C26.0467 29.04 25.5467 29.0333 25.08 29.02C24.6267 29.0067 24.1467 29 23.64 29C23.28 29 22.9067 29 22.52 29C22.1467 29 21.8467 29.0133 21.62 29.04C21.6733 28.2133 21.7133 27.3733 21.74 26.52C21.7667 25.6533 21.78 24.6667 21.78 23.56V20.84ZM39.7266 23.76C39.7266 22.5867 39.5799 21.68 39.2866 21.04C38.9932 20.3867 38.5066 20.06 37.8266 20.06C37.2132 20.06 36.7266 20.42 36.3666 21.14C36.0199 21.86 35.8466 22.9867 35.8466 24.52C35.8466 25.08 35.8799 25.6 35.9466 26.08C36.0132 26.56 36.1199 26.98 36.2666 27.34C36.4266 27.6867 36.6266 27.96 36.8666 28.16C37.1199 28.36 37.4332 28.46 37.8066 28.46C39.0866 28.46 39.7266 26.8933 39.7266 23.76ZM32.8866 24.5C32.8866 23.6067 33.0199 22.8267 33.2866 22.16C33.5666 21.4933 33.9332 20.94 34.3866 20.5C34.8399 20.0467 35.3599 19.7133 35.9466 19.5C36.5466 19.2733 37.1599 19.16 37.7866 19.16C39.3466 19.16 40.5532 19.6 41.4066 20.48C42.2599 21.36 42.6866 22.5533 42.6866 24.06C42.6866 24.8733 42.5666 25.6067 42.3266 26.26C42.0866 26.9133 41.7466 27.4733 41.3066 27.94C40.8799 28.3933 40.3666 28.7333 39.7666 28.96C39.1666 29.1867 38.5066 29.3 37.7866 29.3C37.1866 29.3 36.5932 29.22 36.0066 29.06C35.4332 28.9 34.9132 28.6333 34.4466 28.26C33.9799 27.8733 33.5999 27.3733 33.3066 26.76C33.0266 26.1467 32.8866 25.3933 32.8866 24.5ZM50.8398 23.76C50.8398 22.5867 50.6932 21.68 50.3998 21.04C50.1065 20.3867 49.6198 20.06 48.9398 20.06C48.3265 20.06 47.8398 20.42 47.4798 21.14C47.1332 21.86 46.9598 22.9867 46.9598 24.52C46.9598 25.08 46.9932 25.6 47.0598 26.08C47.1265 26.56 47.2332 26.98 47.3798 27.34C47.5398 27.6867 47.7398 27.96 47.9798 28.16C48.2332 28.36 48.5465 28.46 48.9198 28.46C50.1998 28.46 50.8398 26.8933 50.8398 23.76ZM43.9998 24.5C43.9998 23.6067 44.1332 22.8267 44.3998 22.16C44.6798 21.4933 45.0465 20.94 45.4998 20.5C45.9532 20.0467 46.4732 19.7133 47.0598 19.5C47.6598 19.2733 48.2732 19.16 48.8998 19.16C50.4598 19.16 51.6665 19.6 52.5198 20.48C53.3732 21.36 53.7998 22.5533 53.7998 24.06C53.7998 24.8733 53.6798 25.6067 53.4398 26.26C53.1998 26.9133 52.8598 27.4733 52.4198 27.94C51.9932 28.3933 51.4798 28.7333 50.8798 28.96C50.2798 29.1867 49.6198 29.3 48.8998 29.3C48.2998 29.3 47.7065 29.22 47.1198 29.06C46.5465 28.9 46.0265 28.6333 45.5598 28.26C45.0932 27.8733 44.7132 27.3733 44.4198 26.76C44.1398 26.1467 43.9998 25.3933 43.9998 24.5ZM55.6731 20.88C55.6731 19.5733 55.6598 18.3733 55.6331 17.28C55.6065 16.1867 55.5665 15.08 55.5131 13.96C55.6865 13.9867 55.9065 14.0133 56.1731 14.04C56.4398 14.0533 56.7198 14.06 57.0131 14.06C57.3065 14.06 57.5865 14.0533 57.8531 14.04C58.1198 14.0133 58.3398 13.9867 58.5131 13.96C58.4865 14.52 58.4598 15.0867 58.4331 15.66C58.4198 16.2333 58.4065 16.88 58.3931 17.6C58.3798 18.32 58.3665 19.1467 58.3531 20.08C58.3531 21 58.3531 22.1 58.3531 23.38C58.3531 23.5667 58.3531 23.6867 58.3531 23.74C58.3665 23.7933 58.3998 23.82 58.4531 23.82C58.5065 23.82 58.6331 23.72 58.8331 23.52C59.0465 23.3067 59.3131 23.0067 59.6331 22.62C59.9665 22.2333 60.3465 21.7733 60.7731 21.24C61.2131 20.6933 61.6931 20.0867 62.2131 19.42C62.3731 19.4467 62.5265 19.4733 62.6731 19.5C62.8331 19.5133 62.9931 19.52 63.1531 19.52C63.2998 19.52 63.4598 19.5133 63.6331 19.5C63.8065 19.4733 64.0198 19.4467 64.2731 19.42C64.0998 19.62 63.8398 19.8933 63.4931 20.24C63.1598 20.5867 62.8131 20.9467 62.4531 21.32C62.0931 21.68 61.7531 22.0267 61.4331 22.36C61.1131 22.6933 60.8798 22.94 60.7331 23.1C60.7865 23.18 60.8998 23.3667 61.0731 23.66C61.2598 23.9533 61.4798 24.3067 61.7331 24.72C61.9865 25.12 62.2531 25.5533 62.5331 26.02C62.8131 26.4733 63.0731 26.9133 63.3131 27.34C63.5665 27.7533 63.7865 28.12 63.9731 28.44C64.1598 28.7467 64.2798 28.9467 64.3331 29.04C64.0531 29.0133 63.7865 29 63.5331 29C63.2798 29 63.0198 29 62.7531 29C62.4865 29 62.2265 29 61.9731 29C61.7331 29 61.4865 29.0133 61.2331 29.04C61.1665 28.9733 61.0531 28.8067 60.8931 28.54C60.7465 28.2733 60.5731 27.9733 60.3731 27.64C60.1865 27.2933 59.9865 26.9333 59.7731 26.56C59.5731 26.1867 59.3798 25.8467 59.1931 25.54C59.0065 25.22 58.8398 24.96 58.6931 24.76C58.5465 24.56 58.4465 24.46 58.3931 24.46C58.3398 24.46 58.2998 24.5 58.2731 24.58C58.2598 24.66 58.2531 24.9067 58.2531 25.32V26.44C58.2531 26.6133 58.2531 26.8267 58.2531 27.08C58.2665 27.3333 58.2731 27.5933 58.2731 27.86C58.2865 28.1133 58.2998 28.3533 58.3131 28.58C58.3398 28.8067 58.3665 28.96 58.3931 29.04C58.1531 29.0133 57.9131 29 57.6731 29C57.4331 29 57.1931 29 56.9531 29C56.7131 29 56.4731 29 56.2331 29C55.9931 29 55.7531 29.0133 55.5131 29.04C55.5665 27.96 55.6065 26.8733 55.6331 25.78C55.6598 24.6867 55.6731 23.4867 55.6731 22.18V20.88ZM80.8395 22.42C80.3329 22.4067 79.8262 22.3933 79.3195 22.38C78.8129 22.3533 78.3062 22.34 77.7995 22.34C77.2929 22.34 76.7862 22.3467 76.2795 22.36C75.7729 22.3733 75.2662 22.3933 74.7595 22.42V23.56C74.7595 24.6667 74.7729 25.6533 74.7995 26.52C74.8262 27.3733 74.8662 28.2133 74.9195 29.04C74.6929 29.0133 74.4462 29 74.1795 29C73.9129 29 73.6129 29 73.2795 29C72.9462 29 72.6462 29 72.3795 29C72.1129 29 71.8662 29.0133 71.6395 29.04C71.6929 28.2133 71.7329 27.3733 71.7595 26.52C71.7862 25.6533 71.7995 24.6667 71.7995 23.56V20.84C71.7995 19.7333 71.7862 18.7533 71.7595 17.9C71.7329 17.0333 71.6929 16.1667 71.6395 15.3C71.8662 15.3267 72.1129 15.3533 72.3795 15.38C72.6462 15.3933 72.9462 15.4 73.2795 15.4C73.6129 15.4 73.9129 15.3933 74.1795 15.38C74.4462 15.3533 74.6929 15.3267 74.9195 15.3C74.8529 16.1667 74.8062 17.0267 74.7795 17.88C74.7662 18.72 74.7595 19.6933 74.7595 20.8C75.1062 20.8133 75.5195 20.8267 75.9995 20.84C76.4929 20.84 77.0995 20.84 77.8195 20.84C78.5395 20.84 79.1262 20.84 79.5795 20.84C80.0329 20.8267 80.4529 20.8133 80.8395 20.8C80.8395 19.6933 80.8262 18.72 80.7995 17.88C80.7729 17.0267 80.7329 16.1667 80.6795 15.3C80.9062 15.3267 81.1529 15.3533 81.4195 15.38C81.6862 15.3933 81.9862 15.4 82.3195 15.4C82.6529 15.4 82.9529 15.3933 83.2195 15.38C83.4862 15.3533 83.7329 15.3267 83.9595 15.3C83.9062 16.1667 83.8662 17.0333 83.8395 17.9C83.8129 18.7533 83.7995 19.7333 83.7995 20.84V23.56C83.7995 24.6667 83.8129 25.6533 83.8395 26.52C83.8662 27.3733 83.9062 28.2133 83.9595 29.04C83.7329 29.0133 83.4862 29 83.2195 29C82.9529 29 82.6529 29 82.3195 29C81.9862 29 81.6862 29 81.4195 29C81.1529 29 80.9062 29.0133 80.6795 29.04C80.7329 28.2133 80.7729 27.3733 80.7995 26.52C80.8262 25.6533 80.8395 24.6667 80.8395 23.56V22.42ZM93.0859 23.76C93.0859 22.5867 92.9393 21.68 92.6459 21.04C92.3526 20.3867 91.8659 20.06 91.1859 20.06C90.5726 20.06 90.0859 20.42 89.7259 21.14C89.3793 21.86 89.2059 22.9867 89.2059 24.52C89.2059 25.08 89.2393 25.6 89.3059 26.08C89.3726 26.56 89.4793 26.98 89.6259 27.34C89.7859 27.6867 89.9859 27.96 90.2259 28.16C90.4793 28.36 90.7926 28.46 91.1659 28.46C92.4459 28.46 93.0859 26.8933 93.0859 23.76ZM86.2459 24.5C86.2459 23.6067 86.3793 22.8267 86.6459 22.16C86.9259 21.4933 87.2926 20.94 87.7459 20.5C88.1993 20.0467 88.7193 19.7133 89.3059 19.5C89.9059 19.2733 90.5193 19.16 91.1459 19.16C92.7059 19.16 93.9126 19.6 94.7659 20.48C95.6193 21.36 96.0459 22.5533 96.0459 24.06C96.0459 24.8733 95.9259 25.6067 95.6859 26.26C95.4459 26.9133 95.1059 27.4733 94.6659 27.94C94.2393 28.3933 93.7259 28.7333 93.1259 28.96C92.5259 29.1867 91.8659 29.3 91.1459 29.3C90.5459 29.3 89.9526 29.22 89.3659 29.06C88.7926 28.9 88.2726 28.6333 87.8059 28.26C87.3393 27.8733 86.9593 27.3733 86.6659 26.76C86.3859 26.1467 86.2459 25.3933 86.2459 24.5ZM103.919 27.6C103.546 28.16 103.106 28.5867 102.599 28.88C102.106 29.16 101.539 29.3 100.899 29.3C99.8992 29.3 99.1259 29.02 98.5792 28.46C98.0459 27.9 97.7792 26.9733 97.7792 25.68C97.7792 25 97.7926 24.4 97.8192 23.88C97.8459 23.36 97.8592 22.84 97.8592 22.32C97.8592 21.8933 97.8459 21.4333 97.8192 20.94C97.8059 20.4333 97.7859 19.9267 97.7592 19.42C97.9326 19.4467 98.1526 19.4733 98.4192 19.5C98.6859 19.5133 98.9659 19.52 99.2592 19.52C99.5526 19.52 99.8326 19.5133 100.099 19.5C100.366 19.4733 100.586 19.4467 100.759 19.42C100.666 20.14 100.606 20.9733 100.579 21.92C100.553 22.8667 100.539 23.9467 100.539 25.16C100.539 26 100.679 26.62 100.959 27.02C101.253 27.4067 101.659 27.6 102.179 27.6C102.779 27.6 103.219 27.34 103.499 26.82C103.779 26.3 103.919 25.58 103.919 24.66V23.86C103.919 23.0467 103.906 22.2867 103.879 21.58C103.866 20.86 103.826 20.14 103.759 19.42C104.133 19.4867 104.633 19.52 105.259 19.52C105.566 19.52 105.846 19.5133 106.099 19.5C106.353 19.4733 106.573 19.4467 106.759 19.42C106.693 20.14 106.646 20.86 106.619 21.58C106.606 22.2867 106.599 23.0467 106.599 23.86V24.66C106.599 25.4733 106.606 26.24 106.619 26.96C106.646 27.68 106.693 28.3733 106.759 29.04C106.519 29.0133 106.279 29 106.039 29C105.813 29 105.579 29 105.339 29C105.099 29 104.859 29 104.619 29C104.393 29 104.146 29.0133 103.879 29.04L103.959 27.6H103.919ZM109.193 26.58C109.273 26.7933 109.373 27 109.493 27.2C109.626 27.3867 109.786 27.56 109.973 27.72C110.159 27.8667 110.379 27.9867 110.633 28.08C110.899 28.1733 111.206 28.22 111.553 28.22C112.019 28.22 112.379 28.1 112.633 27.86C112.886 27.62 113.013 27.36 113.013 27.08C113.013 26.7733 112.899 26.5267 112.673 26.34C112.446 26.1533 112.159 25.9867 111.813 25.84C111.479 25.68 111.113 25.52 110.713 25.36C110.313 25.2 109.939 25 109.593 24.76C109.259 24.5067 108.979 24.1933 108.753 23.82C108.526 23.4467 108.413 22.9667 108.413 22.38C108.413 21.82 108.513 21.34 108.713 20.94C108.926 20.5267 109.199 20.1933 109.533 19.94C109.866 19.6733 110.239 19.48 110.653 19.36C111.079 19.2267 111.499 19.16 111.913 19.16C112.473 19.16 112.966 19.24 113.393 19.4C113.833 19.56 114.279 19.7933 114.733 20.1C114.613 20.3667 114.513 20.6533 114.433 20.96C114.353 21.2667 114.293 21.5667 114.253 21.86H113.692C113.653 21.7 113.586 21.5267 113.493 21.34C113.399 21.14 113.273 20.9533 113.113 20.78C112.953 20.6067 112.759 20.4667 112.533 20.36C112.306 20.24 112.033 20.18 111.713 20.18C111.313 20.18 110.973 20.2867 110.693 20.5C110.426 20.7133 110.293 20.9933 110.293 21.34C110.293 21.66 110.406 21.92 110.633 22.12C110.873 22.3067 111.166 22.4733 111.513 22.62C111.859 22.7667 112.239 22.9133 112.653 23.06C113.066 23.2067 113.446 23.4 113.793 23.64C114.139 23.8667 114.426 24.1667 114.653 24.54C114.893 24.9133 115.013 25.3933 115.013 25.98C115.013 26.5667 114.906 27.0733 114.693 27.5C114.479 27.9133 114.193 28.26 113.833 28.54C113.473 28.8067 113.059 29 112.593 29.12C112.139 29.24 111.659 29.3 111.153 29.3C110.553 29.3 110.013 29.2133 109.533 29.04C109.053 28.8667 108.673 28.6867 108.393 28.5C108.553 27.86 108.653 27.22 108.693 26.58H109.193ZM119.206 24.26C119.206 24.7933 119.259 25.2933 119.366 25.76C119.473 26.2267 119.633 26.6333 119.846 26.98C120.073 27.3133 120.353 27.58 120.686 27.78C121.033 27.9667 121.433 28.06 121.886 28.06C122.806 28.06 123.626 27.76 124.346 27.16L124.586 27.34L124.146 28.46C123.813 28.7133 123.413 28.9133 122.946 29.06C122.479 29.22 121.866 29.3 121.106 29.3C120.453 29.3 119.833 29.2067 119.246 29.02C118.659 28.8467 118.139 28.5533 117.686 28.14C117.246 27.7267 116.893 27.2067 116.626 26.58C116.373 25.94 116.246 25.18 116.246 24.3C116.246 23.4333 116.359 22.68 116.586 22.04C116.826 21.4 117.153 20.8667 117.566 20.44C117.979 20.0133 118.466 19.6933 119.026 19.48C119.599 19.2667 120.219 19.16 120.886 19.16C122.206 19.16 123.213 19.5467 123.906 20.32C124.613 21.0933 124.966 22.1867 124.966 23.6V24.02C124.966 24.14 124.959 24.22 124.946 24.26H119.206ZM122.286 23.36C122.259 22.36 122.133 21.56 121.906 20.96C121.693 20.36 121.326 20.06 120.806 20.06C120.513 20.06 120.266 20.16 120.066 20.36C119.866 20.56 119.706 20.82 119.586 21.14C119.466 21.4467 119.373 21.8 119.306 22.2C119.253 22.5867 119.219 22.9733 119.206 23.36H122.286Z" fill="#212121"/>
</svg>
