<svg width="28" height="28" viewBox="0 0 28 28" fill="none" xmlns="http://www.w3.org/2000/svg">
<path d="M18.6651 16.8978H17.7383L17.4098 16.5812C18.8176 14.9398 19.545 12.7004 19.1461 10.3203C18.5947 7.06086 15.873 4.45799 12.5882 4.05936C7.62577 3.44968 3.44935 7.62364 4.05939 12.5832C4.45826 15.866 7.06265 18.5862 10.324 19.1372C12.7055 19.5359 14.9462 18.8089 16.5886 17.402L16.9054 17.7303V18.6565L21.8913 23.6395C22.3723 24.1202 23.1583 24.1202 23.6393 23.6395C24.1202 23.1588 24.1202 22.3732 23.6393 21.8925L18.6651 16.8978ZM11.6262 16.8978C8.70506 16.8978 6.34703 14.5412 6.34703 11.6217C6.34703 8.70231 8.70506 6.34566 11.6262 6.34566C14.5473 6.34566 16.9054 8.70231 16.9054 11.6217C16.9054 14.5412 14.5473 16.8978 11.6262 16.8978Z" fill="white"/>
</svg>
